G04 #@! TF.FileFunction,Copper,L1,Top,Signal*
%FSLAX46Y46*%
G04 Gerber Fmt 4.6, Leading zero omitted, Abs format (unit mm)*
G04 Created by KiCad (PCBNEW 4.0.7) date 04/04/19 07:33:12*
%MOMM*%
%LPD*%
G01*
G04 APERTURE LIST*
%ADD10C,0.100000*%
%ADD11C,1.600000*%
%ADD12O,1.600000X1.600000*%
%ADD13R,1.800000X1.800000*%
%ADD14O,1.800000X1.800000*%
%ADD15C,4.000000*%
%ADD16R,1.600000X1.600000*%
%ADD17C,1.000000*%
%ADD18O,1.300000X1.800000*%
%ADD19C,1.300000*%
%ADD20C,0.500000*%
%ADD21C,0.254000*%
G04 APERTURE END LIST*
D10*
D11*
X73787000Y-90932000D03*
D12*
X73787000Y-82042000D03*
D11*
X70104000Y-86995000D03*
X70104000Y-81995000D03*
X66675000Y-86995000D03*
X66675000Y-81995000D03*
X92964000Y-94488000D03*
X87964000Y-94488000D03*
X95885000Y-88900000D03*
X95885000Y-91400000D03*
X95885000Y-85217000D03*
X95885000Y-82717000D03*
X80137000Y-94488000D03*
X85137000Y-94488000D03*
D13*
X69596000Y-94488000D03*
D14*
X77216000Y-94488000D03*
D15*
X68890000Y-100240000D03*
X77150000Y-100240000D03*
X85410000Y-100240000D03*
X93670000Y-100240000D03*
D16*
X85725000Y-82550000D03*
D12*
X78105000Y-90170000D03*
X83185000Y-82550000D03*
X80645000Y-90170000D03*
X80645000Y-82550000D03*
X83185000Y-90170000D03*
X78105000Y-82550000D03*
X85725000Y-90170000D03*
D17*
X91186000Y-89535000D03*
X91186000Y-84655000D03*
D18*
X67945000Y-91440000D03*
D19*
X69391777Y-90346777D02*
X69038223Y-89993223D01*
X66851777Y-89993223D02*
X66498223Y-90346777D01*
D20*
X73787000Y-82042000D02*
X73787000Y-84455000D01*
X72564000Y-84455000D02*
X73787000Y-84455000D01*
X72564000Y-84455000D02*
X70104000Y-81995000D01*
X75946000Y-82550000D02*
X75692000Y-82550000D01*
X75184000Y-82042000D02*
X73787000Y-82042000D01*
X75692000Y-82550000D02*
X75184000Y-82042000D01*
X95885000Y-91400000D02*
X97790000Y-89495000D01*
X97790000Y-84622000D02*
X95885000Y-82717000D01*
X97790000Y-89495000D02*
X97790000Y-84622000D01*
X76708000Y-80772000D02*
X93940000Y-80772000D01*
X76708000Y-80772000D02*
X75946000Y-81534000D01*
X75946000Y-82550000D02*
X75946000Y-81534000D01*
X93940000Y-80772000D02*
X95885000Y-82717000D01*
X77216000Y-94488000D02*
X77216000Y-96647000D01*
X77216000Y-96647000D02*
X79121000Y-96647000D01*
X79121000Y-96647000D02*
X79629000Y-97155000D01*
X79629000Y-97155000D02*
X79629000Y-97761000D01*
X79629000Y-97761000D02*
X77150000Y-100240000D01*
X78105000Y-82550000D02*
X75946000Y-82550000D01*
X66675000Y-90170000D02*
X68072000Y-88773000D01*
X71310500Y-93027500D02*
X69596000Y-94742000D01*
X71310500Y-90170000D02*
X71310500Y-93027500D01*
X69913500Y-88773000D02*
X71310500Y-90170000D01*
X68072000Y-88773000D02*
X69913500Y-88773000D01*
X68890000Y-100240000D02*
X68890000Y-95448000D01*
X68890000Y-95448000D02*
X69596000Y-94742000D01*
X83185000Y-90170000D02*
X83185000Y-91440000D01*
X90170000Y-96740000D02*
X93670000Y-100240000D01*
X90170000Y-94615000D02*
X90170000Y-96740000D01*
X88265000Y-92710000D02*
X90170000Y-94615000D01*
X86360000Y-92710000D02*
X88265000Y-92710000D01*
X86360000Y-92710000D02*
X85725000Y-92710000D01*
X84455000Y-92710000D02*
X85725000Y-92710000D01*
X83185000Y-91440000D02*
X84455000Y-92710000D01*
X70929500Y-85407500D02*
X68262500Y-85407500D01*
X70929500Y-85407500D02*
X71501000Y-85979000D01*
X71501000Y-85979000D02*
X77851000Y-85979000D01*
X77851000Y-85979000D02*
X80391000Y-88519000D01*
X80391000Y-88519000D02*
X81534000Y-88519000D01*
X83185000Y-90170000D02*
X81534000Y-88519000D01*
X68262500Y-85407500D02*
X66675000Y-86995000D01*
X80645000Y-90170000D02*
X77470000Y-86995000D01*
X77470000Y-86995000D02*
X70104000Y-86995000D01*
X80645000Y-90170000D02*
X80645000Y-91948000D01*
X82550000Y-97380000D02*
X85410000Y-100240000D01*
X82550000Y-93853000D02*
X82550000Y-97380000D01*
X80645000Y-91948000D02*
X82550000Y-93853000D01*
X78105000Y-90170000D02*
X74549000Y-90170000D01*
X74549000Y-90170000D02*
X73787000Y-90932000D01*
D21*
G36*
X98210500Y-109970500D02*
X64349500Y-109970500D01*
X64349500Y-94833109D01*
X64726500Y-94833109D01*
X64726500Y-96428891D01*
X64855486Y-97077348D01*
X65222808Y-97627083D01*
X65772543Y-97994405D01*
X66421000Y-98123391D01*
X67069457Y-97994405D01*
X67619192Y-97627083D01*
X67986514Y-97077348D01*
X68115500Y-96428891D01*
X68115500Y-94833109D01*
X67986514Y-94184652D01*
X67619192Y-93634917D01*
X67069457Y-93267595D01*
X66421000Y-93138609D01*
X65772543Y-93267595D01*
X65222808Y-93634917D01*
X64855486Y-94184652D01*
X64726500Y-94833109D01*
X64349500Y-94833109D01*
X64349500Y-91770480D01*
X66650601Y-91770480D01*
X66779930Y-92259699D01*
X67086630Y-92662186D01*
X67524009Y-92916667D01*
X67619529Y-92933099D01*
X67818000Y-92809067D01*
X67818000Y-91567000D01*
X68072000Y-91567000D01*
X68072000Y-92809067D01*
X68270471Y-92933099D01*
X68365991Y-92916667D01*
X68803370Y-92662186D01*
X69110070Y-92259699D01*
X69239399Y-91770480D01*
X69077303Y-91567000D01*
X68072000Y-91567000D01*
X67818000Y-91567000D01*
X66812697Y-91567000D01*
X66650601Y-91770480D01*
X64349500Y-91770480D01*
X64349500Y-90365402D01*
X65385099Y-90365402D01*
X65468412Y-90784249D01*
X65705670Y-91139330D01*
X66060751Y-91376588D01*
X66479598Y-91459901D01*
X66898445Y-91376588D01*
X66993611Y-91313000D01*
X67818000Y-91313000D01*
X67818000Y-91293000D01*
X68072000Y-91293000D01*
X68072000Y-91313000D01*
X68896389Y-91313000D01*
X68991555Y-91376588D01*
X69410402Y-91459901D01*
X69829249Y-91376588D01*
X70184330Y-91139330D01*
X70421588Y-90784249D01*
X70504901Y-90365402D01*
X70500226Y-90341897D01*
X70616000Y-90457671D01*
X70616000Y-92739828D01*
X70221036Y-93134792D01*
X68696000Y-93134792D01*
X68531278Y-93165787D01*
X68379991Y-93263137D01*
X68278498Y-93411677D01*
X68242792Y-93588000D01*
X68242792Y-95210248D01*
X68195500Y-95448000D01*
X68195500Y-97882008D01*
X67507111Y-98166445D01*
X66818862Y-98853494D01*
X66445925Y-99751626D01*
X66445076Y-100724108D01*
X66816445Y-101622889D01*
X67503494Y-102311138D01*
X68401626Y-102684075D01*
X69374108Y-102684924D01*
X70272889Y-102313555D01*
X70471768Y-102115022D01*
X75454584Y-102115022D01*
X75675353Y-102485743D01*
X76647012Y-102879119D01*
X77695247Y-102870713D01*
X78624647Y-102485743D01*
X78845416Y-102115022D01*
X77150000Y-100419605D01*
X75454584Y-102115022D01*
X70471768Y-102115022D01*
X70961138Y-101626506D01*
X71334075Y-100728374D01*
X71334924Y-99755892D01*
X71327123Y-99737012D01*
X74510881Y-99737012D01*
X74519287Y-100785247D01*
X74904257Y-101714647D01*
X75274978Y-101935416D01*
X76970395Y-100240000D01*
X77329605Y-100240000D01*
X79025022Y-101935416D01*
X79395743Y-101714647D01*
X79789119Y-100742988D01*
X79780713Y-99694753D01*
X79395743Y-98765353D01*
X79025022Y-98544584D01*
X77329605Y-100240000D01*
X76970395Y-100240000D01*
X75274978Y-98544584D01*
X74904257Y-98765353D01*
X74510881Y-99737012D01*
X71327123Y-99737012D01*
X70963555Y-98857111D01*
X70472281Y-98364978D01*
X75454584Y-98364978D01*
X77150000Y-100060395D01*
X78845416Y-98364978D01*
X78624647Y-97994257D01*
X77652988Y-97600881D01*
X76604753Y-97609287D01*
X75675353Y-97994257D01*
X75454584Y-98364978D01*
X70472281Y-98364978D01*
X70276506Y-98168862D01*
X69584500Y-97881516D01*
X69584500Y-95841208D01*
X70496000Y-95841208D01*
X70660722Y-95810213D01*
X70812009Y-95712863D01*
X70913502Y-95564323D01*
X70949208Y-95388000D01*
X70949208Y-94852740D01*
X75724964Y-94852740D01*
X75903760Y-95284417D01*
X76308424Y-95725966D01*
X76851258Y-95979046D01*
X77089000Y-95858997D01*
X77089000Y-94615000D01*
X77343000Y-94615000D01*
X77343000Y-95858997D01*
X77580742Y-95979046D01*
X78123576Y-95725966D01*
X78528240Y-95284417D01*
X78707036Y-94852740D01*
X78647007Y-94734460D01*
X78892285Y-94734460D01*
X79081349Y-95192032D01*
X79431127Y-95542420D01*
X79888368Y-95732283D01*
X80383460Y-95732715D01*
X80841032Y-95543651D01*
X81191420Y-95193873D01*
X81381283Y-94736632D01*
X81381715Y-94241540D01*
X81192651Y-93783968D01*
X80842873Y-93433580D01*
X80385632Y-93243717D01*
X79890540Y-93243285D01*
X79432968Y-93432349D01*
X79082580Y-93782127D01*
X78892717Y-94239368D01*
X78892285Y-94734460D01*
X78647007Y-94734460D01*
X78586378Y-94615000D01*
X77343000Y-94615000D01*
X77089000Y-94615000D01*
X75845622Y-94615000D01*
X75724964Y-94852740D01*
X70949208Y-94852740D01*
X70949208Y-94370964D01*
X71196912Y-94123260D01*
X75724964Y-94123260D01*
X75845622Y-94361000D01*
X77089000Y-94361000D01*
X77089000Y-93117003D01*
X77343000Y-93117003D01*
X77343000Y-94361000D01*
X78586378Y-94361000D01*
X78707036Y-94123260D01*
X78528240Y-93691583D01*
X78123576Y-93250034D01*
X77580742Y-92996954D01*
X77343000Y-93117003D01*
X77089000Y-93117003D01*
X76851258Y-92996954D01*
X76308424Y-93250034D01*
X75903760Y-93691583D01*
X75724964Y-94123260D01*
X71196912Y-94123260D01*
X71801586Y-93518586D01*
X71913139Y-93351634D01*
X71952134Y-93293274D01*
X72005000Y-93027500D01*
X72005000Y-90170000D01*
X71952134Y-89904226D01*
X71801586Y-89678914D01*
X71801583Y-89678912D01*
X70404586Y-88281914D01*
X70341419Y-88239707D01*
X70350460Y-88239715D01*
X70808032Y-88050651D01*
X71158420Y-87700873D01*
X71163142Y-87689500D01*
X77182328Y-87689500D01*
X78465693Y-88972865D01*
X78105000Y-88901119D01*
X77628750Y-88995851D01*
X77225006Y-89265625D01*
X77084772Y-89475500D01*
X74549005Y-89475500D01*
X74549000Y-89475499D01*
X74283227Y-89528365D01*
X74283225Y-89528366D01*
X74283226Y-89528366D01*
X74057914Y-89678914D01*
X74057912Y-89678917D01*
X74045157Y-89691672D01*
X74035632Y-89687717D01*
X73540540Y-89687285D01*
X73082968Y-89876349D01*
X72732580Y-90226127D01*
X72542717Y-90683368D01*
X72542285Y-91178460D01*
X72731349Y-91636032D01*
X73081127Y-91986420D01*
X73538368Y-92176283D01*
X74033460Y-92176715D01*
X74491032Y-91987651D01*
X74841420Y-91637873D01*
X75031283Y-91180632D01*
X75031559Y-90864500D01*
X77084772Y-90864500D01*
X77225006Y-91074375D01*
X77628750Y-91344149D01*
X78105000Y-91438881D01*
X78581250Y-91344149D01*
X78984994Y-91074375D01*
X79254768Y-90670631D01*
X79349500Y-90194381D01*
X79349500Y-90145619D01*
X79277754Y-89784926D01*
X79439978Y-89947150D01*
X79400500Y-90145619D01*
X79400500Y-90194381D01*
X79495232Y-90670631D01*
X79765006Y-91074375D01*
X79950500Y-91198319D01*
X79950500Y-91948000D01*
X80003366Y-92213774D01*
X80083030Y-92333000D01*
X80153914Y-92439086D01*
X81855500Y-94140672D01*
X81855500Y-97380000D01*
X81908366Y-97645774D01*
X82008126Y-97795076D01*
X82058914Y-97871086D01*
X83251563Y-99063735D01*
X82965925Y-99751626D01*
X82965076Y-100724108D01*
X83336445Y-101622889D01*
X84023494Y-102311138D01*
X84921626Y-102684075D01*
X85894108Y-102684924D01*
X86792889Y-102313555D01*
X87481138Y-101626506D01*
X87854075Y-100728374D01*
X87854924Y-99755892D01*
X87483555Y-98857111D01*
X86796506Y-98168862D01*
X85898374Y-97795925D01*
X84925892Y-97795076D01*
X84233386Y-98081214D01*
X83244500Y-97092328D01*
X83244500Y-95495745D01*
X84308861Y-95495745D01*
X84382995Y-95741864D01*
X84920223Y-95934965D01*
X85490454Y-95907778D01*
X85891005Y-95741864D01*
X85965139Y-95495745D01*
X87135861Y-95495745D01*
X87209995Y-95741864D01*
X87747223Y-95934965D01*
X88317454Y-95907778D01*
X88718005Y-95741864D01*
X88792139Y-95495745D01*
X87964000Y-94667605D01*
X87135861Y-95495745D01*
X85965139Y-95495745D01*
X85137000Y-94667605D01*
X84308861Y-95495745D01*
X83244500Y-95495745D01*
X83244500Y-94271223D01*
X83690035Y-94271223D01*
X83717222Y-94841454D01*
X83883136Y-95242005D01*
X84129255Y-95316139D01*
X84957395Y-94488000D01*
X85316605Y-94488000D01*
X86144745Y-95316139D01*
X86390864Y-95242005D01*
X86543123Y-94818404D01*
X86544222Y-94841454D01*
X86710136Y-95242005D01*
X86956255Y-95316139D01*
X87784395Y-94488000D01*
X86956255Y-93659861D01*
X86710136Y-93733995D01*
X86557877Y-94157596D01*
X86556778Y-94134546D01*
X86390864Y-93733995D01*
X86144745Y-93659861D01*
X85316605Y-94488000D01*
X84957395Y-94488000D01*
X84129255Y-93659861D01*
X83883136Y-93733995D01*
X83690035Y-94271223D01*
X83244500Y-94271223D01*
X83244500Y-93853005D01*
X83244501Y-93853000D01*
X83191634Y-93587227D01*
X83191634Y-93587226D01*
X83041086Y-93361914D01*
X81339500Y-91660328D01*
X81339500Y-91198319D01*
X81524994Y-91074375D01*
X81794768Y-90670631D01*
X81889500Y-90194381D01*
X81889500Y-90145619D01*
X81817754Y-89784925D01*
X81979978Y-89947149D01*
X81940500Y-90145619D01*
X81940500Y-90194381D01*
X82035232Y-90670631D01*
X82305006Y-91074375D01*
X82490500Y-91198319D01*
X82490500Y-91440000D01*
X82543366Y-91705774D01*
X82575225Y-91753454D01*
X82693914Y-91931086D01*
X83963914Y-93201086D01*
X84189226Y-93351634D01*
X84338650Y-93381357D01*
X84308861Y-93480255D01*
X85137000Y-94308395D01*
X85965139Y-93480255D01*
X85942321Y-93404500D01*
X87158679Y-93404500D01*
X87135861Y-93480255D01*
X87964000Y-94308395D01*
X87978142Y-94294252D01*
X88157748Y-94473858D01*
X88143605Y-94488000D01*
X88971745Y-95316139D01*
X89217864Y-95242005D01*
X89375704Y-94802876D01*
X89475500Y-94902672D01*
X89475500Y-96740000D01*
X89528366Y-97005774D01*
X89576190Y-97077348D01*
X89678914Y-97231086D01*
X91511563Y-99063734D01*
X91225925Y-99751626D01*
X91225076Y-100724108D01*
X91596445Y-101622889D01*
X92283494Y-102311138D01*
X93181626Y-102684075D01*
X94154108Y-102684924D01*
X95052889Y-102313555D01*
X95741138Y-101626506D01*
X96114075Y-100728374D01*
X96114924Y-99755892D01*
X95743555Y-98857111D01*
X95056506Y-98168862D01*
X94158374Y-97795925D01*
X93185892Y-97795076D01*
X92493386Y-98081214D01*
X90864500Y-96452328D01*
X90864500Y-94734460D01*
X91719285Y-94734460D01*
X91908349Y-95192032D01*
X92258127Y-95542420D01*
X92715368Y-95732283D01*
X93210460Y-95732715D01*
X93668032Y-95543651D01*
X94018420Y-95193873D01*
X94168222Y-94833109D01*
X94444500Y-94833109D01*
X94444500Y-96428891D01*
X94573486Y-97077348D01*
X94940808Y-97627083D01*
X95490543Y-97994405D01*
X96139000Y-98123391D01*
X96787457Y-97994405D01*
X97337192Y-97627083D01*
X97704514Y-97077348D01*
X97833500Y-96428891D01*
X97833500Y-94833109D01*
X97704514Y-94184652D01*
X97337192Y-93634917D01*
X96787457Y-93267595D01*
X96139000Y-93138609D01*
X95490543Y-93267595D01*
X94940808Y-93634917D01*
X94573486Y-94184652D01*
X94444500Y-94833109D01*
X94168222Y-94833109D01*
X94208283Y-94736632D01*
X94208715Y-94241540D01*
X94019651Y-93783968D01*
X93669873Y-93433580D01*
X93212632Y-93243717D01*
X92717540Y-93243285D01*
X92259968Y-93432349D01*
X91909580Y-93782127D01*
X91719717Y-94239368D01*
X91719285Y-94734460D01*
X90864500Y-94734460D01*
X90864500Y-94615005D01*
X90864501Y-94615000D01*
X90811634Y-94349227D01*
X90811634Y-94349226D01*
X90661086Y-94123914D01*
X88944917Y-92407745D01*
X95056861Y-92407745D01*
X95130995Y-92653864D01*
X95668223Y-92846965D01*
X96238454Y-92819778D01*
X96639005Y-92653864D01*
X96713139Y-92407745D01*
X95885000Y-91579605D01*
X95056861Y-92407745D01*
X88944917Y-92407745D01*
X88756086Y-92218914D01*
X88658942Y-92154005D01*
X88530774Y-92068366D01*
X88265000Y-92015500D01*
X84742672Y-92015500D01*
X83907069Y-91179897D01*
X84064994Y-91074375D01*
X84334768Y-90670631D01*
X84429500Y-90194381D01*
X84429500Y-90145619D01*
X84480500Y-90145619D01*
X84480500Y-90194381D01*
X84575232Y-90670631D01*
X84845006Y-91074375D01*
X85248750Y-91344149D01*
X85725000Y-91438881D01*
X86201250Y-91344149D01*
X86442091Y-91183223D01*
X94438035Y-91183223D01*
X94465222Y-91753454D01*
X94631136Y-92154005D01*
X94877255Y-92228139D01*
X95705395Y-91400000D01*
X96064605Y-91400000D01*
X96892745Y-92228139D01*
X97138864Y-92154005D01*
X97331965Y-91616777D01*
X97304778Y-91046546D01*
X97138864Y-90645995D01*
X96892745Y-90571861D01*
X96064605Y-91400000D01*
X95705395Y-91400000D01*
X94877255Y-90571861D01*
X94631136Y-90645995D01*
X94438035Y-91183223D01*
X86442091Y-91183223D01*
X86604994Y-91074375D01*
X86874768Y-90670631D01*
X86969500Y-90194381D01*
X86969500Y-90145619D01*
X86885247Y-89722048D01*
X90241336Y-89722048D01*
X90384825Y-90069317D01*
X90650285Y-90335241D01*
X90997303Y-90479336D01*
X91373048Y-90479664D01*
X91720317Y-90336175D01*
X91986241Y-90070715D01*
X92130336Y-89723697D01*
X92130664Y-89347952D01*
X92047409Y-89146460D01*
X94640285Y-89146460D01*
X94829349Y-89604032D01*
X95179127Y-89954420D01*
X95386227Y-90040415D01*
X95130995Y-90146136D01*
X95056861Y-90392255D01*
X95885000Y-91220395D01*
X96713139Y-90392255D01*
X96639005Y-90146136D01*
X96365739Y-90047913D01*
X96589032Y-89955651D01*
X96939420Y-89605873D01*
X97129283Y-89148632D01*
X97129715Y-88653540D01*
X96940651Y-88195968D01*
X96590873Y-87845580D01*
X96133632Y-87655717D01*
X95638540Y-87655285D01*
X95180968Y-87844349D01*
X94830580Y-88194127D01*
X94640717Y-88651368D01*
X94640285Y-89146460D01*
X92047409Y-89146460D01*
X91987175Y-89000683D01*
X91721715Y-88734759D01*
X91374697Y-88590664D01*
X90998952Y-88590336D01*
X90651683Y-88733825D01*
X90385759Y-88999285D01*
X90241664Y-89346303D01*
X90241336Y-89722048D01*
X86885247Y-89722048D01*
X86874768Y-89669369D01*
X86604994Y-89265625D01*
X86201250Y-88995851D01*
X85725000Y-88901119D01*
X85248750Y-88995851D01*
X84845006Y-89265625D01*
X84575232Y-89669369D01*
X84480500Y-90145619D01*
X84429500Y-90145619D01*
X84334768Y-89669369D01*
X84064994Y-89265625D01*
X83661250Y-88995851D01*
X83185000Y-88901119D01*
X82945859Y-88948687D01*
X82025086Y-88027914D01*
X81799774Y-87877366D01*
X81534000Y-87824500D01*
X80678671Y-87824500D01*
X78342086Y-85487914D01*
X78221737Y-85407500D01*
X78116774Y-85337366D01*
X77851000Y-85284500D01*
X71788672Y-85284500D01*
X71420586Y-84916414D01*
X71309289Y-84842048D01*
X90241336Y-84842048D01*
X90384825Y-85189317D01*
X90650285Y-85455241D01*
X90997303Y-85599336D01*
X91373048Y-85599664D01*
X91702685Y-85463460D01*
X94640285Y-85463460D01*
X94829349Y-85921032D01*
X95179127Y-86271420D01*
X95636368Y-86461283D01*
X96131460Y-86461715D01*
X96589032Y-86272651D01*
X96939420Y-85922873D01*
X97129283Y-85465632D01*
X97129715Y-84970540D01*
X96940651Y-84512968D01*
X96590873Y-84162580D01*
X96383773Y-84076585D01*
X96639005Y-83970864D01*
X96713139Y-83724745D01*
X95885000Y-82896605D01*
X95056861Y-83724745D01*
X95130995Y-83970864D01*
X95404261Y-84069087D01*
X95180968Y-84161349D01*
X94830580Y-84511127D01*
X94640717Y-84968368D01*
X94640285Y-85463460D01*
X91702685Y-85463460D01*
X91720317Y-85456175D01*
X91986241Y-85190715D01*
X92130336Y-84843697D01*
X92130664Y-84467952D01*
X91987175Y-84120683D01*
X91721715Y-83854759D01*
X91374697Y-83710664D01*
X90998952Y-83710336D01*
X90651683Y-83853825D01*
X90385759Y-84119285D01*
X90241664Y-84466303D01*
X90241336Y-84842048D01*
X71309289Y-84842048D01*
X71195274Y-84765866D01*
X70929500Y-84713000D01*
X68262500Y-84713000D01*
X67996726Y-84765866D01*
X67771414Y-84916414D01*
X66933156Y-85754672D01*
X66923632Y-85750717D01*
X66428540Y-85750285D01*
X65970968Y-85939349D01*
X65620580Y-86289127D01*
X65430717Y-86746368D01*
X65430285Y-87241460D01*
X65619349Y-87699032D01*
X65969127Y-88049420D01*
X66426368Y-88239283D01*
X66921460Y-88239715D01*
X67379032Y-88050651D01*
X67729420Y-87700873D01*
X67919283Y-87243632D01*
X67919715Y-86748540D01*
X67915013Y-86737159D01*
X68550172Y-86102000D01*
X69237033Y-86102000D01*
X69049580Y-86289127D01*
X68859717Y-86746368D01*
X68859285Y-87241460D01*
X69048349Y-87699032D01*
X69398127Y-88049420D01*
X69468159Y-88078500D01*
X68072000Y-88078500D01*
X67806226Y-88131366D01*
X67580914Y-88281914D01*
X67580912Y-88281917D01*
X66964093Y-88898735D01*
X66870402Y-88880099D01*
X66451555Y-88963412D01*
X66096473Y-89200670D01*
X65705670Y-89591474D01*
X65468412Y-89946555D01*
X65385099Y-90365402D01*
X64349500Y-90365402D01*
X64349500Y-83002745D01*
X65846861Y-83002745D01*
X65920995Y-83248864D01*
X66458223Y-83441965D01*
X67028454Y-83414778D01*
X67429005Y-83248864D01*
X67503139Y-83002745D01*
X69275861Y-83002745D01*
X69349995Y-83248864D01*
X69887223Y-83441965D01*
X70457454Y-83414778D01*
X70858005Y-83248864D01*
X70932139Y-83002745D01*
X70104000Y-82174605D01*
X69275861Y-83002745D01*
X67503139Y-83002745D01*
X66675000Y-82174605D01*
X65846861Y-83002745D01*
X64349500Y-83002745D01*
X64349500Y-81778223D01*
X65228035Y-81778223D01*
X65255222Y-82348454D01*
X65421136Y-82749005D01*
X65667255Y-82823139D01*
X66495395Y-81995000D01*
X66854605Y-81995000D01*
X67682745Y-82823139D01*
X67928864Y-82749005D01*
X68121965Y-82211777D01*
X68101295Y-81778223D01*
X68657035Y-81778223D01*
X68684222Y-82348454D01*
X68850136Y-82749005D01*
X69096255Y-82823139D01*
X69924395Y-81995000D01*
X70283605Y-81995000D01*
X71111745Y-82823139D01*
X71357864Y-82749005D01*
X71486530Y-82391041D01*
X72395086Y-82391041D01*
X72634611Y-82897134D01*
X73049577Y-83273041D01*
X73437961Y-83433904D01*
X73660000Y-83311915D01*
X73660000Y-82169000D01*
X73914000Y-82169000D01*
X73914000Y-83311915D01*
X74136039Y-83433904D01*
X74524423Y-83273041D01*
X74937283Y-82899041D01*
X76713086Y-82899041D01*
X76952611Y-83405134D01*
X77367577Y-83781041D01*
X77755961Y-83941904D01*
X77978000Y-83819915D01*
X77978000Y-82677000D01*
X76834371Y-82677000D01*
X76713086Y-82899041D01*
X74937283Y-82899041D01*
X74939389Y-82897134D01*
X75178914Y-82391041D01*
X75075086Y-82200959D01*
X76713086Y-82200959D01*
X76834371Y-82423000D01*
X77978000Y-82423000D01*
X77978000Y-81280085D01*
X78232000Y-81280085D01*
X78232000Y-82423000D01*
X78252000Y-82423000D01*
X78252000Y-82677000D01*
X78232000Y-82677000D01*
X78232000Y-83819915D01*
X78454039Y-83941904D01*
X78842423Y-83781041D01*
X79257389Y-83405134D01*
X79474499Y-82946401D01*
X79495232Y-83050631D01*
X79765006Y-83454375D01*
X80168750Y-83724149D01*
X80645000Y-83818881D01*
X81121250Y-83724149D01*
X81524994Y-83454375D01*
X81794768Y-83050631D01*
X81889500Y-82574381D01*
X81889500Y-82525619D01*
X81940500Y-82525619D01*
X81940500Y-82574381D01*
X82035232Y-83050631D01*
X82305006Y-83454375D01*
X82708750Y-83724149D01*
X83185000Y-83818881D01*
X83661250Y-83724149D01*
X84064994Y-83454375D01*
X84334768Y-83050631D01*
X84429500Y-82574381D01*
X84429500Y-82525619D01*
X84334768Y-82049369D01*
X84134736Y-81750000D01*
X84471792Y-81750000D01*
X84471792Y-83350000D01*
X84502787Y-83514722D01*
X84600137Y-83666009D01*
X84748677Y-83767502D01*
X84925000Y-83803208D01*
X86525000Y-83803208D01*
X86689722Y-83772213D01*
X86841009Y-83674863D01*
X86942502Y-83526323D01*
X86978208Y-83350000D01*
X86978208Y-82500223D01*
X94438035Y-82500223D01*
X94465222Y-83070454D01*
X94631136Y-83471005D01*
X94877255Y-83545139D01*
X95705395Y-82717000D01*
X96064605Y-82717000D01*
X96892745Y-83545139D01*
X97138864Y-83471005D01*
X97331965Y-82933777D01*
X97304778Y-82363546D01*
X97138864Y-81962995D01*
X96892745Y-81888861D01*
X96064605Y-82717000D01*
X95705395Y-82717000D01*
X94877255Y-81888861D01*
X94631136Y-81962995D01*
X94438035Y-82500223D01*
X86978208Y-82500223D01*
X86978208Y-81750000D01*
X86970542Y-81709255D01*
X95056861Y-81709255D01*
X95885000Y-82537395D01*
X96713139Y-81709255D01*
X96639005Y-81463136D01*
X96101777Y-81270035D01*
X95531546Y-81297222D01*
X95130995Y-81463136D01*
X95056861Y-81709255D01*
X86970542Y-81709255D01*
X86947213Y-81585278D01*
X86849863Y-81433991D01*
X86701323Y-81332498D01*
X86525000Y-81296792D01*
X84925000Y-81296792D01*
X84760278Y-81327787D01*
X84608991Y-81425137D01*
X84507498Y-81573677D01*
X84471792Y-81750000D01*
X84134736Y-81750000D01*
X84064994Y-81645625D01*
X83661250Y-81375851D01*
X83185000Y-81281119D01*
X82708750Y-81375851D01*
X82305006Y-81645625D01*
X82035232Y-82049369D01*
X81940500Y-82525619D01*
X81889500Y-82525619D01*
X81794768Y-82049369D01*
X81524994Y-81645625D01*
X81121250Y-81375851D01*
X80645000Y-81281119D01*
X80168750Y-81375851D01*
X79765006Y-81645625D01*
X79495232Y-82049369D01*
X79474499Y-82153599D01*
X79257389Y-81694866D01*
X78842423Y-81318959D01*
X78454039Y-81158096D01*
X78232000Y-81280085D01*
X77978000Y-81280085D01*
X77755961Y-81158096D01*
X77367577Y-81318959D01*
X76952611Y-81694866D01*
X76713086Y-82200959D01*
X75075086Y-82200959D01*
X75057629Y-82169000D01*
X73914000Y-82169000D01*
X73660000Y-82169000D01*
X72516371Y-82169000D01*
X72395086Y-82391041D01*
X71486530Y-82391041D01*
X71550965Y-82211777D01*
X71526230Y-81692959D01*
X72395086Y-81692959D01*
X72516371Y-81915000D01*
X73660000Y-81915000D01*
X73660000Y-80772085D01*
X73914000Y-80772085D01*
X73914000Y-81915000D01*
X75057629Y-81915000D01*
X75178914Y-81692959D01*
X74939389Y-81186866D01*
X74524423Y-80810959D01*
X74136039Y-80650096D01*
X73914000Y-80772085D01*
X73660000Y-80772085D01*
X73437961Y-80650096D01*
X73049577Y-80810959D01*
X72634611Y-81186866D01*
X72395086Y-81692959D01*
X71526230Y-81692959D01*
X71523778Y-81641546D01*
X71357864Y-81240995D01*
X71111745Y-81166861D01*
X70283605Y-81995000D01*
X69924395Y-81995000D01*
X69096255Y-81166861D01*
X68850136Y-81240995D01*
X68657035Y-81778223D01*
X68101295Y-81778223D01*
X68094778Y-81641546D01*
X67928864Y-81240995D01*
X67682745Y-81166861D01*
X66854605Y-81995000D01*
X66495395Y-81995000D01*
X65667255Y-81166861D01*
X65421136Y-81240995D01*
X65228035Y-81778223D01*
X64349500Y-81778223D01*
X64349500Y-80987255D01*
X65846861Y-80987255D01*
X66675000Y-81815395D01*
X67503139Y-80987255D01*
X69275861Y-80987255D01*
X70104000Y-81815395D01*
X70932139Y-80987255D01*
X70858005Y-80741136D01*
X70320777Y-80548035D01*
X69750546Y-80575222D01*
X69349995Y-80741136D01*
X69275861Y-80987255D01*
X67503139Y-80987255D01*
X67429005Y-80741136D01*
X66891777Y-80548035D01*
X66321546Y-80575222D01*
X65920995Y-80741136D01*
X65846861Y-80987255D01*
X64349500Y-80987255D01*
X64349500Y-80519500D01*
X98210500Y-80519500D01*
X98210500Y-109970500D01*
X98210500Y-109970500D01*
G37*
X98210500Y-109970500D02*
X64349500Y-109970500D01*
X64349500Y-94833109D01*
X64726500Y-94833109D01*
X64726500Y-96428891D01*
X64855486Y-97077348D01*
X65222808Y-97627083D01*
X65772543Y-97994405D01*
X66421000Y-98123391D01*
X67069457Y-97994405D01*
X67619192Y-97627083D01*
X67986514Y-97077348D01*
X68115500Y-96428891D01*
X68115500Y-94833109D01*
X67986514Y-94184652D01*
X67619192Y-93634917D01*
X67069457Y-93267595D01*
X66421000Y-93138609D01*
X65772543Y-93267595D01*
X65222808Y-93634917D01*
X64855486Y-94184652D01*
X64726500Y-94833109D01*
X64349500Y-94833109D01*
X64349500Y-91770480D01*
X66650601Y-91770480D01*
X66779930Y-92259699D01*
X67086630Y-92662186D01*
X67524009Y-92916667D01*
X67619529Y-92933099D01*
X67818000Y-92809067D01*
X67818000Y-91567000D01*
X68072000Y-91567000D01*
X68072000Y-92809067D01*
X68270471Y-92933099D01*
X68365991Y-92916667D01*
X68803370Y-92662186D01*
X69110070Y-92259699D01*
X69239399Y-91770480D01*
X69077303Y-91567000D01*
X68072000Y-91567000D01*
X67818000Y-91567000D01*
X66812697Y-91567000D01*
X66650601Y-91770480D01*
X64349500Y-91770480D01*
X64349500Y-90365402D01*
X65385099Y-90365402D01*
X65468412Y-90784249D01*
X65705670Y-91139330D01*
X66060751Y-91376588D01*
X66479598Y-91459901D01*
X66898445Y-91376588D01*
X66993611Y-91313000D01*
X67818000Y-91313000D01*
X67818000Y-91293000D01*
X68072000Y-91293000D01*
X68072000Y-91313000D01*
X68896389Y-91313000D01*
X68991555Y-91376588D01*
X69410402Y-91459901D01*
X69829249Y-91376588D01*
X70184330Y-91139330D01*
X70421588Y-90784249D01*
X70504901Y-90365402D01*
X70500226Y-90341897D01*
X70616000Y-90457671D01*
X70616000Y-92739828D01*
X70221036Y-93134792D01*
X68696000Y-93134792D01*
X68531278Y-93165787D01*
X68379991Y-93263137D01*
X68278498Y-93411677D01*
X68242792Y-93588000D01*
X68242792Y-95210248D01*
X68195500Y-95448000D01*
X68195500Y-97882008D01*
X67507111Y-98166445D01*
X66818862Y-98853494D01*
X66445925Y-99751626D01*
X66445076Y-100724108D01*
X66816445Y-101622889D01*
X67503494Y-102311138D01*
X68401626Y-102684075D01*
X69374108Y-102684924D01*
X70272889Y-102313555D01*
X70471768Y-102115022D01*
X75454584Y-102115022D01*
X75675353Y-102485743D01*
X76647012Y-102879119D01*
X77695247Y-102870713D01*
X78624647Y-102485743D01*
X78845416Y-102115022D01*
X77150000Y-100419605D01*
X75454584Y-102115022D01*
X70471768Y-102115022D01*
X70961138Y-101626506D01*
X71334075Y-100728374D01*
X71334924Y-99755892D01*
X71327123Y-99737012D01*
X74510881Y-99737012D01*
X74519287Y-100785247D01*
X74904257Y-101714647D01*
X75274978Y-101935416D01*
X76970395Y-100240000D01*
X77329605Y-100240000D01*
X79025022Y-101935416D01*
X79395743Y-101714647D01*
X79789119Y-100742988D01*
X79780713Y-99694753D01*
X79395743Y-98765353D01*
X79025022Y-98544584D01*
X77329605Y-100240000D01*
X76970395Y-100240000D01*
X75274978Y-98544584D01*
X74904257Y-98765353D01*
X74510881Y-99737012D01*
X71327123Y-99737012D01*
X70963555Y-98857111D01*
X70472281Y-98364978D01*
X75454584Y-98364978D01*
X77150000Y-100060395D01*
X78845416Y-98364978D01*
X78624647Y-97994257D01*
X77652988Y-97600881D01*
X76604753Y-97609287D01*
X75675353Y-97994257D01*
X75454584Y-98364978D01*
X70472281Y-98364978D01*
X70276506Y-98168862D01*
X69584500Y-97881516D01*
X69584500Y-95841208D01*
X70496000Y-95841208D01*
X70660722Y-95810213D01*
X70812009Y-95712863D01*
X70913502Y-95564323D01*
X70949208Y-95388000D01*
X70949208Y-94852740D01*
X75724964Y-94852740D01*
X75903760Y-95284417D01*
X76308424Y-95725966D01*
X76851258Y-95979046D01*
X77089000Y-95858997D01*
X77089000Y-94615000D01*
X77343000Y-94615000D01*
X77343000Y-95858997D01*
X77580742Y-95979046D01*
X78123576Y-95725966D01*
X78528240Y-95284417D01*
X78707036Y-94852740D01*
X78647007Y-94734460D01*
X78892285Y-94734460D01*
X79081349Y-95192032D01*
X79431127Y-95542420D01*
X79888368Y-95732283D01*
X80383460Y-95732715D01*
X80841032Y-95543651D01*
X81191420Y-95193873D01*
X81381283Y-94736632D01*
X81381715Y-94241540D01*
X81192651Y-93783968D01*
X80842873Y-93433580D01*
X80385632Y-93243717D01*
X79890540Y-93243285D01*
X79432968Y-93432349D01*
X79082580Y-93782127D01*
X78892717Y-94239368D01*
X78892285Y-94734460D01*
X78647007Y-94734460D01*
X78586378Y-94615000D01*
X77343000Y-94615000D01*
X77089000Y-94615000D01*
X75845622Y-94615000D01*
X75724964Y-94852740D01*
X70949208Y-94852740D01*
X70949208Y-94370964D01*
X71196912Y-94123260D01*
X75724964Y-94123260D01*
X75845622Y-94361000D01*
X77089000Y-94361000D01*
X77089000Y-93117003D01*
X77343000Y-93117003D01*
X77343000Y-94361000D01*
X78586378Y-94361000D01*
X78707036Y-94123260D01*
X78528240Y-93691583D01*
X78123576Y-93250034D01*
X77580742Y-92996954D01*
X77343000Y-93117003D01*
X77089000Y-93117003D01*
X76851258Y-92996954D01*
X76308424Y-93250034D01*
X75903760Y-93691583D01*
X75724964Y-94123260D01*
X71196912Y-94123260D01*
X71801586Y-93518586D01*
X71913139Y-93351634D01*
X71952134Y-93293274D01*
X72005000Y-93027500D01*
X72005000Y-90170000D01*
X71952134Y-89904226D01*
X71801586Y-89678914D01*
X71801583Y-89678912D01*
X70404586Y-88281914D01*
X70341419Y-88239707D01*
X70350460Y-88239715D01*
X70808032Y-88050651D01*
X71158420Y-87700873D01*
X71163142Y-87689500D01*
X77182328Y-87689500D01*
X78465693Y-88972865D01*
X78105000Y-88901119D01*
X77628750Y-88995851D01*
X77225006Y-89265625D01*
X77084772Y-89475500D01*
X74549005Y-89475500D01*
X74549000Y-89475499D01*
X74283227Y-89528365D01*
X74283225Y-89528366D01*
X74283226Y-89528366D01*
X74057914Y-89678914D01*
X74057912Y-89678917D01*
X74045157Y-89691672D01*
X74035632Y-89687717D01*
X73540540Y-89687285D01*
X73082968Y-89876349D01*
X72732580Y-90226127D01*
X72542717Y-90683368D01*
X72542285Y-91178460D01*
X72731349Y-91636032D01*
X73081127Y-91986420D01*
X73538368Y-92176283D01*
X74033460Y-92176715D01*
X74491032Y-91987651D01*
X74841420Y-91637873D01*
X75031283Y-91180632D01*
X75031559Y-90864500D01*
X77084772Y-90864500D01*
X77225006Y-91074375D01*
X77628750Y-91344149D01*
X78105000Y-91438881D01*
X78581250Y-91344149D01*
X78984994Y-91074375D01*
X79254768Y-90670631D01*
X79349500Y-90194381D01*
X79349500Y-90145619D01*
X79277754Y-89784926D01*
X79439978Y-89947150D01*
X79400500Y-90145619D01*
X79400500Y-90194381D01*
X79495232Y-90670631D01*
X79765006Y-91074375D01*
X79950500Y-91198319D01*
X79950500Y-91948000D01*
X80003366Y-92213774D01*
X80083030Y-92333000D01*
X80153914Y-92439086D01*
X81855500Y-94140672D01*
X81855500Y-97380000D01*
X81908366Y-97645774D01*
X82008126Y-97795076D01*
X82058914Y-97871086D01*
X83251563Y-99063735D01*
X82965925Y-99751626D01*
X82965076Y-100724108D01*
X83336445Y-101622889D01*
X84023494Y-102311138D01*
X84921626Y-102684075D01*
X85894108Y-102684924D01*
X86792889Y-102313555D01*
X87481138Y-101626506D01*
X87854075Y-100728374D01*
X87854924Y-99755892D01*
X87483555Y-98857111D01*
X86796506Y-98168862D01*
X85898374Y-97795925D01*
X84925892Y-97795076D01*
X84233386Y-98081214D01*
X83244500Y-97092328D01*
X83244500Y-95495745D01*
X84308861Y-95495745D01*
X84382995Y-95741864D01*
X84920223Y-95934965D01*
X85490454Y-95907778D01*
X85891005Y-95741864D01*
X85965139Y-95495745D01*
X87135861Y-95495745D01*
X87209995Y-95741864D01*
X87747223Y-95934965D01*
X88317454Y-95907778D01*
X88718005Y-95741864D01*
X88792139Y-95495745D01*
X87964000Y-94667605D01*
X87135861Y-95495745D01*
X85965139Y-95495745D01*
X85137000Y-94667605D01*
X84308861Y-95495745D01*
X83244500Y-95495745D01*
X83244500Y-94271223D01*
X83690035Y-94271223D01*
X83717222Y-94841454D01*
X83883136Y-95242005D01*
X84129255Y-95316139D01*
X84957395Y-94488000D01*
X85316605Y-94488000D01*
X86144745Y-95316139D01*
X86390864Y-95242005D01*
X86543123Y-94818404D01*
X86544222Y-94841454D01*
X86710136Y-95242005D01*
X86956255Y-95316139D01*
X87784395Y-94488000D01*
X86956255Y-93659861D01*
X86710136Y-93733995D01*
X86557877Y-94157596D01*
X86556778Y-94134546D01*
X86390864Y-93733995D01*
X86144745Y-93659861D01*
X85316605Y-94488000D01*
X84957395Y-94488000D01*
X84129255Y-93659861D01*
X83883136Y-93733995D01*
X83690035Y-94271223D01*
X83244500Y-94271223D01*
X83244500Y-93853005D01*
X83244501Y-93853000D01*
X83191634Y-93587227D01*
X83191634Y-93587226D01*
X83041086Y-93361914D01*
X81339500Y-91660328D01*
X81339500Y-91198319D01*
X81524994Y-91074375D01*
X81794768Y-90670631D01*
X81889500Y-90194381D01*
X81889500Y-90145619D01*
X81817754Y-89784925D01*
X81979978Y-89947149D01*
X81940500Y-90145619D01*
X81940500Y-90194381D01*
X82035232Y-90670631D01*
X82305006Y-91074375D01*
X82490500Y-91198319D01*
X82490500Y-91440000D01*
X82543366Y-91705774D01*
X82575225Y-91753454D01*
X82693914Y-91931086D01*
X83963914Y-93201086D01*
X84189226Y-93351634D01*
X84338650Y-93381357D01*
X84308861Y-93480255D01*
X85137000Y-94308395D01*
X85965139Y-93480255D01*
X85942321Y-93404500D01*
X87158679Y-93404500D01*
X87135861Y-93480255D01*
X87964000Y-94308395D01*
X87978142Y-94294252D01*
X88157748Y-94473858D01*
X88143605Y-94488000D01*
X88971745Y-95316139D01*
X89217864Y-95242005D01*
X89375704Y-94802876D01*
X89475500Y-94902672D01*
X89475500Y-96740000D01*
X89528366Y-97005774D01*
X89576190Y-97077348D01*
X89678914Y-97231086D01*
X91511563Y-99063734D01*
X91225925Y-99751626D01*
X91225076Y-100724108D01*
X91596445Y-101622889D01*
X92283494Y-102311138D01*
X93181626Y-102684075D01*
X94154108Y-102684924D01*
X95052889Y-102313555D01*
X95741138Y-101626506D01*
X96114075Y-100728374D01*
X96114924Y-99755892D01*
X95743555Y-98857111D01*
X95056506Y-98168862D01*
X94158374Y-97795925D01*
X93185892Y-97795076D01*
X92493386Y-98081214D01*
X90864500Y-96452328D01*
X90864500Y-94734460D01*
X91719285Y-94734460D01*
X91908349Y-95192032D01*
X92258127Y-95542420D01*
X92715368Y-95732283D01*
X93210460Y-95732715D01*
X93668032Y-95543651D01*
X94018420Y-95193873D01*
X94168222Y-94833109D01*
X94444500Y-94833109D01*
X94444500Y-96428891D01*
X94573486Y-97077348D01*
X94940808Y-97627083D01*
X95490543Y-97994405D01*
X96139000Y-98123391D01*
X96787457Y-97994405D01*
X97337192Y-97627083D01*
X97704514Y-97077348D01*
X97833500Y-96428891D01*
X97833500Y-94833109D01*
X97704514Y-94184652D01*
X97337192Y-93634917D01*
X96787457Y-93267595D01*
X96139000Y-93138609D01*
X95490543Y-93267595D01*
X94940808Y-93634917D01*
X94573486Y-94184652D01*
X94444500Y-94833109D01*
X94168222Y-94833109D01*
X94208283Y-94736632D01*
X94208715Y-94241540D01*
X94019651Y-93783968D01*
X93669873Y-93433580D01*
X93212632Y-93243717D01*
X92717540Y-93243285D01*
X92259968Y-93432349D01*
X91909580Y-93782127D01*
X91719717Y-94239368D01*
X91719285Y-94734460D01*
X90864500Y-94734460D01*
X90864500Y-94615005D01*
X90864501Y-94615000D01*
X90811634Y-94349227D01*
X90811634Y-94349226D01*
X90661086Y-94123914D01*
X88944917Y-92407745D01*
X95056861Y-92407745D01*
X95130995Y-92653864D01*
X95668223Y-92846965D01*
X96238454Y-92819778D01*
X96639005Y-92653864D01*
X96713139Y-92407745D01*
X95885000Y-91579605D01*
X95056861Y-92407745D01*
X88944917Y-92407745D01*
X88756086Y-92218914D01*
X88658942Y-92154005D01*
X88530774Y-92068366D01*
X88265000Y-92015500D01*
X84742672Y-92015500D01*
X83907069Y-91179897D01*
X84064994Y-91074375D01*
X84334768Y-90670631D01*
X84429500Y-90194381D01*
X84429500Y-90145619D01*
X84480500Y-90145619D01*
X84480500Y-90194381D01*
X84575232Y-90670631D01*
X84845006Y-91074375D01*
X85248750Y-91344149D01*
X85725000Y-91438881D01*
X86201250Y-91344149D01*
X86442091Y-91183223D01*
X94438035Y-91183223D01*
X94465222Y-91753454D01*
X94631136Y-92154005D01*
X94877255Y-92228139D01*
X95705395Y-91400000D01*
X96064605Y-91400000D01*
X96892745Y-92228139D01*
X97138864Y-92154005D01*
X97331965Y-91616777D01*
X97304778Y-91046546D01*
X97138864Y-90645995D01*
X96892745Y-90571861D01*
X96064605Y-91400000D01*
X95705395Y-91400000D01*
X94877255Y-90571861D01*
X94631136Y-90645995D01*
X94438035Y-91183223D01*
X86442091Y-91183223D01*
X86604994Y-91074375D01*
X86874768Y-90670631D01*
X86969500Y-90194381D01*
X86969500Y-90145619D01*
X86885247Y-89722048D01*
X90241336Y-89722048D01*
X90384825Y-90069317D01*
X90650285Y-90335241D01*
X90997303Y-90479336D01*
X91373048Y-90479664D01*
X91720317Y-90336175D01*
X91986241Y-90070715D01*
X92130336Y-89723697D01*
X92130664Y-89347952D01*
X92047409Y-89146460D01*
X94640285Y-89146460D01*
X94829349Y-89604032D01*
X95179127Y-89954420D01*
X95386227Y-90040415D01*
X95130995Y-90146136D01*
X95056861Y-90392255D01*
X95885000Y-91220395D01*
X96713139Y-90392255D01*
X96639005Y-90146136D01*
X96365739Y-90047913D01*
X96589032Y-89955651D01*
X96939420Y-89605873D01*
X97129283Y-89148632D01*
X97129715Y-88653540D01*
X96940651Y-88195968D01*
X96590873Y-87845580D01*
X96133632Y-87655717D01*
X95638540Y-87655285D01*
X95180968Y-87844349D01*
X94830580Y-88194127D01*
X94640717Y-88651368D01*
X94640285Y-89146460D01*
X92047409Y-89146460D01*
X91987175Y-89000683D01*
X91721715Y-88734759D01*
X91374697Y-88590664D01*
X90998952Y-88590336D01*
X90651683Y-88733825D01*
X90385759Y-88999285D01*
X90241664Y-89346303D01*
X90241336Y-89722048D01*
X86885247Y-89722048D01*
X86874768Y-89669369D01*
X86604994Y-89265625D01*
X86201250Y-88995851D01*
X85725000Y-88901119D01*
X85248750Y-88995851D01*
X84845006Y-89265625D01*
X84575232Y-89669369D01*
X84480500Y-90145619D01*
X84429500Y-90145619D01*
X84334768Y-89669369D01*
X84064994Y-89265625D01*
X83661250Y-88995851D01*
X83185000Y-88901119D01*
X82945859Y-88948687D01*
X82025086Y-88027914D01*
X81799774Y-87877366D01*
X81534000Y-87824500D01*
X80678671Y-87824500D01*
X78342086Y-85487914D01*
X78221737Y-85407500D01*
X78116774Y-85337366D01*
X77851000Y-85284500D01*
X71788672Y-85284500D01*
X71420586Y-84916414D01*
X71309289Y-84842048D01*
X90241336Y-84842048D01*
X90384825Y-85189317D01*
X90650285Y-85455241D01*
X90997303Y-85599336D01*
X91373048Y-85599664D01*
X91702685Y-85463460D01*
X94640285Y-85463460D01*
X94829349Y-85921032D01*
X95179127Y-86271420D01*
X95636368Y-86461283D01*
X96131460Y-86461715D01*
X96589032Y-86272651D01*
X96939420Y-85922873D01*
X97129283Y-85465632D01*
X97129715Y-84970540D01*
X96940651Y-84512968D01*
X96590873Y-84162580D01*
X96383773Y-84076585D01*
X96639005Y-83970864D01*
X96713139Y-83724745D01*
X95885000Y-82896605D01*
X95056861Y-83724745D01*
X95130995Y-83970864D01*
X95404261Y-84069087D01*
X95180968Y-84161349D01*
X94830580Y-84511127D01*
X94640717Y-84968368D01*
X94640285Y-85463460D01*
X91702685Y-85463460D01*
X91720317Y-85456175D01*
X91986241Y-85190715D01*
X92130336Y-84843697D01*
X92130664Y-84467952D01*
X91987175Y-84120683D01*
X91721715Y-83854759D01*
X91374697Y-83710664D01*
X90998952Y-83710336D01*
X90651683Y-83853825D01*
X90385759Y-84119285D01*
X90241664Y-84466303D01*
X90241336Y-84842048D01*
X71309289Y-84842048D01*
X71195274Y-84765866D01*
X70929500Y-84713000D01*
X68262500Y-84713000D01*
X67996726Y-84765866D01*
X67771414Y-84916414D01*
X66933156Y-85754672D01*
X66923632Y-85750717D01*
X66428540Y-85750285D01*
X65970968Y-85939349D01*
X65620580Y-86289127D01*
X65430717Y-86746368D01*
X65430285Y-87241460D01*
X65619349Y-87699032D01*
X65969127Y-88049420D01*
X66426368Y-88239283D01*
X66921460Y-88239715D01*
X67379032Y-88050651D01*
X67729420Y-87700873D01*
X67919283Y-87243632D01*
X67919715Y-86748540D01*
X67915013Y-86737159D01*
X68550172Y-86102000D01*
X69237033Y-86102000D01*
X69049580Y-86289127D01*
X68859717Y-86746368D01*
X68859285Y-87241460D01*
X69048349Y-87699032D01*
X69398127Y-88049420D01*
X69468159Y-88078500D01*
X68072000Y-88078500D01*
X67806226Y-88131366D01*
X67580914Y-88281914D01*
X67580912Y-88281917D01*
X66964093Y-88898735D01*
X66870402Y-88880099D01*
X66451555Y-88963412D01*
X66096473Y-89200670D01*
X65705670Y-89591474D01*
X65468412Y-89946555D01*
X65385099Y-90365402D01*
X64349500Y-90365402D01*
X64349500Y-83002745D01*
X65846861Y-83002745D01*
X65920995Y-83248864D01*
X66458223Y-83441965D01*
X67028454Y-83414778D01*
X67429005Y-83248864D01*
X67503139Y-83002745D01*
X69275861Y-83002745D01*
X69349995Y-83248864D01*
X69887223Y-83441965D01*
X70457454Y-83414778D01*
X70858005Y-83248864D01*
X70932139Y-83002745D01*
X70104000Y-82174605D01*
X69275861Y-83002745D01*
X67503139Y-83002745D01*
X66675000Y-82174605D01*
X65846861Y-83002745D01*
X64349500Y-83002745D01*
X64349500Y-81778223D01*
X65228035Y-81778223D01*
X65255222Y-82348454D01*
X65421136Y-82749005D01*
X65667255Y-82823139D01*
X66495395Y-81995000D01*
X66854605Y-81995000D01*
X67682745Y-82823139D01*
X67928864Y-82749005D01*
X68121965Y-82211777D01*
X68101295Y-81778223D01*
X68657035Y-81778223D01*
X68684222Y-82348454D01*
X68850136Y-82749005D01*
X69096255Y-82823139D01*
X69924395Y-81995000D01*
X70283605Y-81995000D01*
X71111745Y-82823139D01*
X71357864Y-82749005D01*
X71486530Y-82391041D01*
X72395086Y-82391041D01*
X72634611Y-82897134D01*
X73049577Y-83273041D01*
X73437961Y-83433904D01*
X73660000Y-83311915D01*
X73660000Y-82169000D01*
X73914000Y-82169000D01*
X73914000Y-83311915D01*
X74136039Y-83433904D01*
X74524423Y-83273041D01*
X74937283Y-82899041D01*
X76713086Y-82899041D01*
X76952611Y-83405134D01*
X77367577Y-83781041D01*
X77755961Y-83941904D01*
X77978000Y-83819915D01*
X77978000Y-82677000D01*
X76834371Y-82677000D01*
X76713086Y-82899041D01*
X74937283Y-82899041D01*
X74939389Y-82897134D01*
X75178914Y-82391041D01*
X75075086Y-82200959D01*
X76713086Y-82200959D01*
X76834371Y-82423000D01*
X77978000Y-82423000D01*
X77978000Y-81280085D01*
X78232000Y-81280085D01*
X78232000Y-82423000D01*
X78252000Y-82423000D01*
X78252000Y-82677000D01*
X78232000Y-82677000D01*
X78232000Y-83819915D01*
X78454039Y-83941904D01*
X78842423Y-83781041D01*
X79257389Y-83405134D01*
X79474499Y-82946401D01*
X79495232Y-83050631D01*
X79765006Y-83454375D01*
X80168750Y-83724149D01*
X80645000Y-83818881D01*
X81121250Y-83724149D01*
X81524994Y-83454375D01*
X81794768Y-83050631D01*
X81889500Y-82574381D01*
X81889500Y-82525619D01*
X81940500Y-82525619D01*
X81940500Y-82574381D01*
X82035232Y-83050631D01*
X82305006Y-83454375D01*
X82708750Y-83724149D01*
X83185000Y-83818881D01*
X83661250Y-83724149D01*
X84064994Y-83454375D01*
X84334768Y-83050631D01*
X84429500Y-82574381D01*
X84429500Y-82525619D01*
X84334768Y-82049369D01*
X84134736Y-81750000D01*
X84471792Y-81750000D01*
X84471792Y-83350000D01*
X84502787Y-83514722D01*
X84600137Y-83666009D01*
X84748677Y-83767502D01*
X84925000Y-83803208D01*
X86525000Y-83803208D01*
X86689722Y-83772213D01*
X86841009Y-83674863D01*
X86942502Y-83526323D01*
X86978208Y-83350000D01*
X86978208Y-82500223D01*
X94438035Y-82500223D01*
X94465222Y-83070454D01*
X94631136Y-83471005D01*
X94877255Y-83545139D01*
X95705395Y-82717000D01*
X96064605Y-82717000D01*
X96892745Y-83545139D01*
X97138864Y-83471005D01*
X97331965Y-82933777D01*
X97304778Y-82363546D01*
X97138864Y-81962995D01*
X96892745Y-81888861D01*
X96064605Y-82717000D01*
X95705395Y-82717000D01*
X94877255Y-81888861D01*
X94631136Y-81962995D01*
X94438035Y-82500223D01*
X86978208Y-82500223D01*
X86978208Y-81750000D01*
X86970542Y-81709255D01*
X95056861Y-81709255D01*
X95885000Y-82537395D01*
X96713139Y-81709255D01*
X96639005Y-81463136D01*
X96101777Y-81270035D01*
X95531546Y-81297222D01*
X95130995Y-81463136D01*
X95056861Y-81709255D01*
X86970542Y-81709255D01*
X86947213Y-81585278D01*
X86849863Y-81433991D01*
X86701323Y-81332498D01*
X86525000Y-81296792D01*
X84925000Y-81296792D01*
X84760278Y-81327787D01*
X84608991Y-81425137D01*
X84507498Y-81573677D01*
X84471792Y-81750000D01*
X84134736Y-81750000D01*
X84064994Y-81645625D01*
X83661250Y-81375851D01*
X83185000Y-81281119D01*
X82708750Y-81375851D01*
X82305006Y-81645625D01*
X82035232Y-82049369D01*
X81940500Y-82525619D01*
X81889500Y-82525619D01*
X81794768Y-82049369D01*
X81524994Y-81645625D01*
X81121250Y-81375851D01*
X80645000Y-81281119D01*
X80168750Y-81375851D01*
X79765006Y-81645625D01*
X79495232Y-82049369D01*
X79474499Y-82153599D01*
X79257389Y-81694866D01*
X78842423Y-81318959D01*
X78454039Y-81158096D01*
X78232000Y-81280085D01*
X77978000Y-81280085D01*
X77755961Y-81158096D01*
X77367577Y-81318959D01*
X76952611Y-81694866D01*
X76713086Y-82200959D01*
X75075086Y-82200959D01*
X75057629Y-82169000D01*
X73914000Y-82169000D01*
X73660000Y-82169000D01*
X72516371Y-82169000D01*
X72395086Y-82391041D01*
X71486530Y-82391041D01*
X71550965Y-82211777D01*
X71526230Y-81692959D01*
X72395086Y-81692959D01*
X72516371Y-81915000D01*
X73660000Y-81915000D01*
X73660000Y-80772085D01*
X73914000Y-80772085D01*
X73914000Y-81915000D01*
X75057629Y-81915000D01*
X75178914Y-81692959D01*
X74939389Y-81186866D01*
X74524423Y-80810959D01*
X74136039Y-80650096D01*
X73914000Y-80772085D01*
X73660000Y-80772085D01*
X73437961Y-80650096D01*
X73049577Y-80810959D01*
X72634611Y-81186866D01*
X72395086Y-81692959D01*
X71526230Y-81692959D01*
X71523778Y-81641546D01*
X71357864Y-81240995D01*
X71111745Y-81166861D01*
X70283605Y-81995000D01*
X69924395Y-81995000D01*
X69096255Y-81166861D01*
X68850136Y-81240995D01*
X68657035Y-81778223D01*
X68101295Y-81778223D01*
X68094778Y-81641546D01*
X67928864Y-81240995D01*
X67682745Y-81166861D01*
X66854605Y-81995000D01*
X66495395Y-81995000D01*
X65667255Y-81166861D01*
X65421136Y-81240995D01*
X65228035Y-81778223D01*
X64349500Y-81778223D01*
X64349500Y-80987255D01*
X65846861Y-80987255D01*
X66675000Y-81815395D01*
X67503139Y-80987255D01*
X69275861Y-80987255D01*
X70104000Y-81815395D01*
X70932139Y-80987255D01*
X70858005Y-80741136D01*
X70320777Y-80548035D01*
X69750546Y-80575222D01*
X69349995Y-80741136D01*
X69275861Y-80987255D01*
X67503139Y-80987255D01*
X67429005Y-80741136D01*
X66891777Y-80548035D01*
X66321546Y-80575222D01*
X65920995Y-80741136D01*
X65846861Y-80987255D01*
X64349500Y-80987255D01*
X64349500Y-80519500D01*
X98210500Y-80519500D01*
X98210500Y-109970500D01*
M02*
