G04 #@! TF.FileFunction,Legend,Top*
%FSLAX46Y46*%
G04 Gerber Fmt 4.6, Leading zero omitted, Abs format (unit mm)*
G04 Created by KiCad (PCBNEW 4.0.7) date 04/04/19 07:33:12*
%MOMM*%
%LPD*%
G01*
G04 APERTURE LIST*
%ADD10C,0.100000*%
%ADD11C,0.150000*%
%ADD12C,0.120000*%
G04 APERTURE END LIST*
D10*
D11*
X90209952Y-97353381D02*
X90209952Y-96353381D01*
X90590905Y-96353381D01*
X90686143Y-96401000D01*
X90733762Y-96448619D01*
X90781381Y-96543857D01*
X90781381Y-96686714D01*
X90733762Y-96781952D01*
X90686143Y-96829571D01*
X90590905Y-96877190D01*
X90209952Y-96877190D01*
X91209952Y-96353381D02*
X91209952Y-97162905D01*
X91257571Y-97258143D01*
X91305190Y-97305762D01*
X91400428Y-97353381D01*
X91590905Y-97353381D01*
X91686143Y-97305762D01*
X91733762Y-97258143D01*
X91781381Y-97162905D01*
X91781381Y-96353381D01*
X92733762Y-97353381D02*
X92257571Y-97353381D01*
X92257571Y-96353381D01*
X93019476Y-97305762D02*
X93162333Y-97353381D01*
X93400429Y-97353381D01*
X93495667Y-97305762D01*
X93543286Y-97258143D01*
X93590905Y-97162905D01*
X93590905Y-97067667D01*
X93543286Y-96972429D01*
X93495667Y-96924810D01*
X93400429Y-96877190D01*
X93209952Y-96829571D01*
X93114714Y-96781952D01*
X93067095Y-96734333D01*
X93019476Y-96639095D01*
X93019476Y-96543857D01*
X93067095Y-96448619D01*
X93114714Y-96401000D01*
X93209952Y-96353381D01*
X93448048Y-96353381D01*
X93590905Y-96401000D01*
X94019476Y-96829571D02*
X94352810Y-96829571D01*
X94495667Y-97353381D02*
X94019476Y-97353381D01*
X94019476Y-96353381D01*
X94495667Y-96353381D01*
X84137667Y-97353381D02*
X84137667Y-96353381D01*
X84375762Y-96353381D01*
X84518620Y-96401000D01*
X84613858Y-96496238D01*
X84661477Y-96591476D01*
X84709096Y-96781952D01*
X84709096Y-96924810D01*
X84661477Y-97115286D01*
X84613858Y-97210524D01*
X84518620Y-97305762D01*
X84375762Y-97353381D01*
X84137667Y-97353381D01*
X85137667Y-97353381D02*
X85137667Y-96353381D01*
X85566238Y-97067667D02*
X86042429Y-97067667D01*
X85471000Y-97353381D02*
X85804333Y-96353381D01*
X86137667Y-97353381D01*
X86947191Y-97353381D02*
X86471000Y-97353381D01*
X86471000Y-96353381D01*
X76327096Y-96401000D02*
X76231858Y-96353381D01*
X76089001Y-96353381D01*
X75946143Y-96401000D01*
X75850905Y-96496238D01*
X75803286Y-96591476D01*
X75755667Y-96781952D01*
X75755667Y-96924810D01*
X75803286Y-97115286D01*
X75850905Y-97210524D01*
X75946143Y-97305762D01*
X76089001Y-97353381D01*
X76184239Y-97353381D01*
X76327096Y-97305762D01*
X76374715Y-97258143D01*
X76374715Y-96924810D01*
X76184239Y-96924810D01*
X76803286Y-97353381D02*
X76803286Y-96353381D01*
X77374715Y-97353381D01*
X77374715Y-96353381D01*
X77850905Y-97353381D02*
X77850905Y-96353381D01*
X78089000Y-96353381D01*
X78231858Y-96401000D01*
X78327096Y-96496238D01*
X78374715Y-96591476D01*
X78422334Y-96781952D01*
X78422334Y-96924810D01*
X78374715Y-97115286D01*
X78327096Y-97210524D01*
X78231858Y-97305762D01*
X78089000Y-97353381D01*
X77850905Y-97353381D01*
X68580191Y-97353381D02*
X68104000Y-97353381D01*
X68104000Y-96353381D01*
X68913524Y-97353381D02*
X68913524Y-96353381D01*
X69389714Y-97353381D02*
X69389714Y-96353381D01*
X69961143Y-97353381D01*
X69961143Y-96353381D01*
X70437333Y-96829571D02*
X70770667Y-96829571D01*
X70913524Y-97353381D02*
X70437333Y-97353381D01*
X70437333Y-96353381D01*
X70913524Y-96353381D01*
X71342095Y-96972429D02*
X72104000Y-96972429D01*
X71723048Y-97353381D02*
X71723048Y-96591476D01*
D12*
X72477000Y-89697000D02*
X75097000Y-89697000D01*
X75097000Y-89697000D02*
X75097000Y-83277000D01*
X75097000Y-83277000D02*
X72477000Y-83277000D01*
X72477000Y-83277000D02*
X72477000Y-89697000D01*
X73787000Y-89952000D02*
X73787000Y-89697000D01*
X73787000Y-83022000D02*
X73787000Y-83277000D01*
X69094000Y-86705000D02*
X69094000Y-82285000D01*
X71114000Y-86705000D02*
X71114000Y-82285000D01*
X69094000Y-86705000D02*
X69108000Y-86705000D01*
X71100000Y-86705000D02*
X71114000Y-86705000D01*
X69094000Y-82285000D02*
X69108000Y-82285000D01*
X71100000Y-82285000D02*
X71114000Y-82285000D01*
X65665000Y-86705000D02*
X65665000Y-82285000D01*
X67685000Y-86705000D02*
X67685000Y-82285000D01*
X65665000Y-86705000D02*
X65679000Y-86705000D01*
X67671000Y-86705000D02*
X67685000Y-86705000D01*
X65665000Y-82285000D02*
X65679000Y-82285000D01*
X67671000Y-82285000D02*
X67685000Y-82285000D01*
X92674000Y-95498000D02*
X88254000Y-95498000D01*
X92674000Y-93478000D02*
X88254000Y-93478000D01*
X92674000Y-95498000D02*
X92674000Y-95484000D01*
X92674000Y-93492000D02*
X92674000Y-93478000D01*
X88254000Y-95498000D02*
X88254000Y-95484000D01*
X88254000Y-93492000D02*
X88254000Y-93478000D01*
X96746000Y-89563000D02*
X96746000Y-90737000D01*
X95024000Y-89563000D02*
X95024000Y-90737000D01*
X95024000Y-84554000D02*
X95024000Y-83380000D01*
X96746000Y-84554000D02*
X96746000Y-83380000D01*
X80427000Y-93478000D02*
X84847000Y-93478000D01*
X80427000Y-95498000D02*
X84847000Y-95498000D01*
X80427000Y-93478000D02*
X80427000Y-93492000D01*
X80427000Y-95484000D02*
X80427000Y-95498000D01*
X84847000Y-93478000D02*
X84847000Y-93492000D01*
X84847000Y-95484000D02*
X84847000Y-95498000D01*
X71346000Y-93428000D02*
X71346000Y-95548000D01*
X71346000Y-95548000D02*
X75466000Y-95548000D01*
X75466000Y-95548000D02*
X75466000Y-93428000D01*
X75466000Y-93428000D02*
X71346000Y-93428000D01*
X70576000Y-94488000D02*
X71346000Y-94488000D01*
X76236000Y-94488000D02*
X75466000Y-94488000D01*
X72006000Y-93428000D02*
X72006000Y-95548000D01*
X87055000Y-87360000D02*
G75*
G02X87055000Y-85360000I0J1000000D01*
G01*
X87055000Y-85360000D02*
X87055000Y-83710000D01*
X87055000Y-83710000D02*
X76775000Y-83710000D01*
X76775000Y-83710000D02*
X76775000Y-89010000D01*
X76775000Y-89010000D02*
X87055000Y-89010000D01*
X87055000Y-89010000D02*
X87055000Y-87360000D01*
X88661000Y-90220000D02*
X88661000Y-83970000D01*
X93711000Y-90220000D02*
X93711000Y-83970000D01*
X93711000Y-90220000D02*
G75*
G02X88661000Y-90220000I-2525000J0D01*
G01*
X93711000Y-83970000D02*
G75*
G03X88661000Y-83970000I-2525000J0D01*
G01*
X69745000Y-88320000D02*
X66145000Y-88320000D01*
X69783478Y-88331522D02*
G75*
G02X67945000Y-92770000I-1838478J-1838478D01*
G01*
X66106522Y-88331522D02*
G75*
G03X67945000Y-92770000I1838478J-1838478D01*
G01*
D11*
X74239381Y-86653666D02*
X73763190Y-86987000D01*
X74239381Y-87225095D02*
X73239381Y-87225095D01*
X73239381Y-86844142D01*
X73287000Y-86748904D01*
X73334619Y-86701285D01*
X73429857Y-86653666D01*
X73572714Y-86653666D01*
X73667952Y-86701285D01*
X73715571Y-86748904D01*
X73763190Y-86844142D01*
X73763190Y-87225095D01*
X74239381Y-85701285D02*
X74239381Y-86272714D01*
X74239381Y-85987000D02*
X73239381Y-85987000D01*
X73382238Y-86082238D01*
X73477476Y-86177476D01*
X73525095Y-86272714D01*
X70461143Y-84621666D02*
X70508762Y-84669285D01*
X70556381Y-84812142D01*
X70556381Y-84907380D01*
X70508762Y-85050238D01*
X70413524Y-85145476D01*
X70318286Y-85193095D01*
X70127810Y-85240714D01*
X69984952Y-85240714D01*
X69794476Y-85193095D01*
X69699238Y-85145476D01*
X69604000Y-85050238D01*
X69556381Y-84907380D01*
X69556381Y-84812142D01*
X69604000Y-84669285D01*
X69651619Y-84621666D01*
X69556381Y-83764523D02*
X69556381Y-83955000D01*
X69604000Y-84050238D01*
X69651619Y-84097857D01*
X69794476Y-84193095D01*
X69984952Y-84240714D01*
X70365905Y-84240714D01*
X70461143Y-84193095D01*
X70508762Y-84145476D01*
X70556381Y-84050238D01*
X70556381Y-83859761D01*
X70508762Y-83764523D01*
X70461143Y-83716904D01*
X70365905Y-83669285D01*
X70127810Y-83669285D01*
X70032571Y-83716904D01*
X69984952Y-83764523D01*
X69937333Y-83859761D01*
X69937333Y-84050238D01*
X69984952Y-84145476D01*
X70032571Y-84193095D01*
X70127810Y-84240714D01*
X67032143Y-84621666D02*
X67079762Y-84669285D01*
X67127381Y-84812142D01*
X67127381Y-84907380D01*
X67079762Y-85050238D01*
X66984524Y-85145476D01*
X66889286Y-85193095D01*
X66698810Y-85240714D01*
X66555952Y-85240714D01*
X66365476Y-85193095D01*
X66270238Y-85145476D01*
X66175000Y-85050238D01*
X66127381Y-84907380D01*
X66127381Y-84812142D01*
X66175000Y-84669285D01*
X66222619Y-84621666D01*
X66127381Y-83716904D02*
X66127381Y-84193095D01*
X66603571Y-84240714D01*
X66555952Y-84193095D01*
X66508333Y-84097857D01*
X66508333Y-83859761D01*
X66555952Y-83764523D01*
X66603571Y-83716904D01*
X66698810Y-83669285D01*
X66936905Y-83669285D01*
X67032143Y-83716904D01*
X67079762Y-83764523D01*
X67127381Y-83859761D01*
X67127381Y-84097857D01*
X67079762Y-84193095D01*
X67032143Y-84240714D01*
X90257334Y-94845143D02*
X90209715Y-94892762D01*
X90066858Y-94940381D01*
X89971620Y-94940381D01*
X89828762Y-94892762D01*
X89733524Y-94797524D01*
X89685905Y-94702286D01*
X89638286Y-94511810D01*
X89638286Y-94368952D01*
X89685905Y-94178476D01*
X89733524Y-94083238D01*
X89828762Y-93988000D01*
X89971620Y-93940381D01*
X90066858Y-93940381D01*
X90209715Y-93988000D01*
X90257334Y-94035619D01*
X91209715Y-94940381D02*
X90638286Y-94940381D01*
X90924000Y-94940381D02*
X90924000Y-93940381D01*
X90828762Y-94083238D01*
X90733524Y-94178476D01*
X90638286Y-94226095D01*
X98020143Y-90336666D02*
X98067762Y-90384285D01*
X98115381Y-90527142D01*
X98115381Y-90622380D01*
X98067762Y-90765238D01*
X97972524Y-90860476D01*
X97877286Y-90908095D01*
X97686810Y-90955714D01*
X97543952Y-90955714D01*
X97353476Y-90908095D01*
X97258238Y-90860476D01*
X97163000Y-90765238D01*
X97115381Y-90622380D01*
X97115381Y-90527142D01*
X97163000Y-90384285D01*
X97210619Y-90336666D01*
X97448714Y-89479523D02*
X98115381Y-89479523D01*
X97067762Y-89717619D02*
X97782048Y-89955714D01*
X97782048Y-89336666D01*
X98020143Y-84113666D02*
X98067762Y-84161285D01*
X98115381Y-84304142D01*
X98115381Y-84399380D01*
X98067762Y-84542238D01*
X97972524Y-84637476D01*
X97877286Y-84685095D01*
X97686810Y-84732714D01*
X97543952Y-84732714D01*
X97353476Y-84685095D01*
X97258238Y-84637476D01*
X97163000Y-84542238D01*
X97115381Y-84399380D01*
X97115381Y-84304142D01*
X97163000Y-84161285D01*
X97210619Y-84113666D01*
X97115381Y-83780333D02*
X97115381Y-83161285D01*
X97496333Y-83494619D01*
X97496333Y-83351761D01*
X97543952Y-83256523D01*
X97591571Y-83208904D01*
X97686810Y-83161285D01*
X97924905Y-83161285D01*
X98020143Y-83208904D01*
X98067762Y-83256523D01*
X98115381Y-83351761D01*
X98115381Y-83637476D01*
X98067762Y-83732714D01*
X98020143Y-83780333D01*
X82510334Y-94845143D02*
X82462715Y-94892762D01*
X82319858Y-94940381D01*
X82224620Y-94940381D01*
X82081762Y-94892762D01*
X81986524Y-94797524D01*
X81938905Y-94702286D01*
X81891286Y-94511810D01*
X81891286Y-94368952D01*
X81938905Y-94178476D01*
X81986524Y-94083238D01*
X82081762Y-93988000D01*
X82224620Y-93940381D01*
X82319858Y-93940381D01*
X82462715Y-93988000D01*
X82510334Y-94035619D01*
X82891286Y-94035619D02*
X82938905Y-93988000D01*
X83034143Y-93940381D01*
X83272239Y-93940381D01*
X83367477Y-93988000D01*
X83415096Y-94035619D01*
X83462715Y-94130857D01*
X83462715Y-94226095D01*
X83415096Y-94368952D01*
X82843667Y-94940381D01*
X83462715Y-94940381D01*
X72667905Y-94940381D02*
X72667905Y-93940381D01*
X72906000Y-93940381D01*
X73048858Y-93988000D01*
X73144096Y-94083238D01*
X73191715Y-94178476D01*
X73239334Y-94368952D01*
X73239334Y-94511810D01*
X73191715Y-94702286D01*
X73144096Y-94797524D01*
X73048858Y-94892762D01*
X72906000Y-94940381D01*
X72667905Y-94940381D01*
X74191715Y-94940381D02*
X73620286Y-94940381D01*
X73906000Y-94940381D02*
X73906000Y-93940381D01*
X73810762Y-94083238D01*
X73715524Y-94178476D01*
X73620286Y-94226095D01*
X81153095Y-85812381D02*
X81153095Y-86621905D01*
X81200714Y-86717143D01*
X81248333Y-86764762D01*
X81343571Y-86812381D01*
X81534048Y-86812381D01*
X81629286Y-86764762D01*
X81676905Y-86717143D01*
X81724524Y-86621905D01*
X81724524Y-85812381D01*
X82724524Y-86812381D02*
X82153095Y-86812381D01*
X82438809Y-86812381D02*
X82438809Y-85812381D01*
X82343571Y-85955238D01*
X82248333Y-86050476D01*
X82153095Y-86098095D01*
X91162190Y-87598191D02*
X91638381Y-87598191D01*
X90638381Y-87931524D02*
X91162190Y-87598191D01*
X90638381Y-87264857D01*
X91638381Y-86407714D02*
X91638381Y-86979143D01*
X91638381Y-86693429D02*
X90638381Y-86693429D01*
X90781238Y-86788667D01*
X90876476Y-86883905D01*
X90924095Y-86979143D01*
X70699381Y-92455905D02*
X71508905Y-92455905D01*
X71604143Y-92408286D01*
X71651762Y-92360667D01*
X71699381Y-92265429D01*
X71699381Y-92074952D01*
X71651762Y-91979714D01*
X71604143Y-91932095D01*
X71508905Y-91884476D01*
X70699381Y-91884476D01*
X70794619Y-91455905D02*
X70747000Y-91408286D01*
X70699381Y-91313048D01*
X70699381Y-91074952D01*
X70747000Y-90979714D01*
X70794619Y-90932095D01*
X70889857Y-90884476D01*
X70985095Y-90884476D01*
X71127952Y-90932095D01*
X71699381Y-91503524D01*
X71699381Y-90884476D01*
M02*
