M48
;DRILL file {KiCad 4.0.7} date 04/04/19 07:33:14
;FORMAT={-:-/ absolute / inch / decimal}
FMAT,2
INCH,TZ
T1C0.024
T2C0.031
T3C0.039
T4C0.079
%
G90
G05
M72
T1
X3.59Y-3.3329
X3.59Y-3.3329
X3.59Y-3.525
X3.59Y-3.525
T2
X2.625Y-3.2281
X2.625Y-3.425
X2.625Y-3.55
X2.675Y-3.6
X2.725Y-3.55
X2.76Y-3.2281
X2.76Y-3.425
X2.905Y-3.23
X2.905Y-3.58
X3.075Y-3.25
X3.075Y-3.55
X3.155Y-3.72
X3.175Y-3.25
X3.175Y-3.55
X3.275Y-3.25
X3.275Y-3.55
X3.3519Y-3.72
X3.375Y-3.25
X3.375Y-3.55
X3.4631Y-3.72
X3.66Y-3.72
X3.775Y-3.2566
X3.775Y-3.355
X3.775Y-3.5
X3.775Y-3.5984
T3
X2.74Y-3.72
X3.04Y-3.72
T4
X2.7122Y-3.9465
X3.0374Y-3.9465
X3.3626Y-3.9465
X3.6878Y-3.9465
T0
M30
